<svg width="80" height="32" viewBox="0 0 80 32" fill="none" xmlns="http://www.w3.org/2000/svg">
<g clip-path="url(#clip0_1303_918)">
<path fill-rule="evenodd" clip-rule="evenodd" d="M72.379 21.936C73.381 21.942 73.909 20.99 74.114 19.793H79.599C78.909 28.144 67.359 28.211 66.349 21.588V25.9H58.385V21.541C57.69 25.804 55.252 26.391 54.183 26.388C53.286 26.385 51.089 25.648 50.276 23.402L50.354 25.848C50.371 27.366 51.341 28.328 52.371 28.466V31.997L43.078 32V28.466C43.858 28.444 45.108 27.678 45.122 25.974V19.574C44.837 21.183 43.645 26.386 37.929 26.386C32.265 26.386 30.984 20.891 30.741 20.086C29.683 26.072 25.702 26.402 23.954 26.38C20.814 26.34 18.934 24.18 18.888 24.132C16.999 22.214 16.636 19.309 16.712 16.176C16.712 15.546 16.873 14.321 16.93 13.719C14.898 15.902 13.015 15.629 10.78 15.713L8.902 15.709V19.289C8.9 20.729 9.429 21.589 11.036 21.601V25.906H0V21.691C1.607 21.679 2.158 20.741 2.156 19.301V6.536C2.156 6.231 2.081 4.257 0.006 4.242V0H11.916C14.16 0 15.756 0.684 16.831 1.53C18.817 3.095 19.214 5.784 19.375 7.775C22.409 5.135 29.598 4.547 30.802 12.445C32.102 6.427 36.537 5.972 37.575 5.967C39.44 5.961 42.624 7.087 43.657 10.132V6.378H50.181V8.793C50.661 6.97 52.271 5.98 53.903 5.97C55.477 5.96 58.7 7.708 59.527 14.361V5.502C59.52 4.225 58.739 3.565 57.461 3.572L57.457 0.039H65.049V14.367C65.741 8.02 69.283 5.989 72.265 5.989C75.292 5.989 77.439 7.677 78.538 9.837C79.946 12.6 79.846 15.521 79.761 17.414L70.524 17.416C70.491 17.779 70.525 18.388 70.554 18.949C70.632 20.521 71.148 21.943 72.379 21.936ZM24.128 21.936C25.129 21.942 25.658 21.001 25.863 19.803L30.674 19.801C30.431 18.601 30.402 18.348 30.375 17.415L22.273 17.416C22.24 17.779 22.275 18.388 22.303 18.949C22.381 20.521 22.897 21.943 24.128 21.936ZM35.916 16.212C35.916 19.396 36.488 21.959 37.925 21.979C39.401 21.998 39.934 19.396 39.934 16.212C39.934 13.027 39.362 10.466 37.924 10.446C36.527 10.426 35.916 13.027 35.916 16.212ZM24.095 10.332C22.864 10.326 22.308 11.832 22.23 13.403C22.204 13.936 22.194 13.96 22.23 14.358H25.881C25.917 13.96 25.908 13.936 25.881 13.403C25.803 11.832 25.325 10.326 24.095 10.333V10.332ZM72.345 10.449C71.114 10.442 70.597 11.832 70.519 13.403C70.493 13.936 70.483 13.96 70.519 14.358H74.17C74.206 13.96 74.196 13.936 74.17 13.403C74.092 11.832 73.575 10.443 72.345 10.449ZM50.527 19.11C50.527 20.712 50.921 21.928 52.044 21.928C53.299 21.928 54.048 20.228 54.048 16.23C54.048 11.84 53.371 10.334 52.192 10.282C51.05 10.232 50.467 11.202 50.527 13.205V19.11ZM8.92 10.89H10.468C11.868 10.85 12.358 10.006 12.358 7.863C12.358 5.914 11.673 4.901 10.468 4.901H8.92V10.89Z" fill="#010101"/>
</g>
<defs>
<clipPath id="clip0_1303_918">
<rect width="80" height="32" fill="white"/>
</clipPath>
</defs>
</svg>
