<svg width="155" height="32" viewBox="0 0 155 32" fill="none" xmlns="http://www.w3.org/2000/svg">
<path d="M26.9174 9.80747C23.347 9.80747 20.6063 12.2223 20.6063 16.2223C20.6063 20.2223 23.347 22.6075 26.9174 22.6075C30.4878 22.6075 33.2285 20.2223 33.2285 16.2223C33.2285 12.2223 30.5026 9.80747 26.9174 9.80747ZM26.9174 20.0149C24.9174 20.0149 23.4655 18.5927 23.4655 16.2223C23.4655 13.8519 24.9026 12.2815 26.9174 12.2815C28.9174 12.2815 30.3693 13.8519 30.3693 16.2223C30.3693 18.5927 28.9322 20.0149 26.9174 20.0149ZM9.85073 16.9038C9.00629 17.6001 7.83592 17.8667 6.5174 17.8667H4.94703V22.5778H1.95444V9.82229H6.5174C7.83592 9.82229 8.99147 10.0741 9.85073 10.7853C10.6952 11.4815 11.1841 12.4593 11.1841 13.8371C11.1841 15.2001 10.6952 16.1778 9.85073 16.9038ZM7.53962 12.489C7.16925 12.2371 6.73962 12.1334 6.10259 12.1334H4.93221V15.5556H6.10259C6.75444 15.5556 7.16925 15.4667 7.53962 15.2001C7.89518 14.9482 8.14703 14.4741 8.14703 13.8371C8.14703 13.1853 7.89518 12.7408 7.53962 12.489ZM50.5915 16.9038C49.747 17.6001 48.5767 17.8667 47.2581 17.8667H45.6878V22.5778H42.6952V9.82229H47.273C48.5915 9.82229 49.747 10.0741 50.6063 10.7853C51.4507 11.4815 51.9396 12.4593 51.9396 13.8371C51.9248 15.2001 51.4359 16.1778 50.5915 16.9038ZM48.2804 12.489C47.91 12.2371 47.4804 12.1334 46.8433 12.1334H45.673V15.5556H46.8433C47.4952 15.5556 47.91 15.4667 48.2804 15.2001C48.6359 14.9482 48.8878 14.4741 48.8878 13.8371C48.8878 13.1853 48.6359 12.7408 48.2804 12.489ZM68.9174 21.5408C68.0285 22.2519 66.873 22.5778 65.5396 22.5778C63.7322 22.5778 62.1174 21.6445 61.11 20.6964L62.5618 18.563C63.4655 19.4964 64.8581 20.1334 65.8211 20.1334C66.7544 20.1334 67.4804 19.6741 67.4804 18.8445C67.4804 18.0001 66.5618 17.6741 66.0137 17.4667C65.4655 17.2741 64.5322 16.9482 64.1174 16.7556C63.8063 16.6075 63.1841 16.3704 62.6359 15.8519C62.0878 15.3482 61.6581 14.6223 61.6581 13.4519C61.6581 12.2519 62.2359 11.3186 62.9618 10.726C63.673 10.1334 64.7989 9.7334 66.2507 9.7334C67.7026 9.7334 69.3618 10.4149 70.2063 11.2741L68.9618 13.3186C68.2359 12.5927 67.1248 12.0593 66.1767 12.0593C65.2433 12.0593 64.547 12.4149 64.547 13.1853C64.547 13.9556 65.2581 14.2371 65.8063 14.4445C66.3544 14.6667 67.273 14.9927 67.673 15.1556C68.0137 15.289 68.8433 15.6149 69.4063 16.163C69.9248 16.6815 70.3841 17.4519 70.3841 18.563C70.3841 19.763 69.8211 20.8445 68.9174 21.5408ZM90.2359 17.126C90.2359 18.9038 89.9248 20.1334 89.0211 21.0964C88.147 22.0445 86.7693 22.5927 84.9322 22.5927C83.0804 22.5927 81.7174 22.0445 80.8285 21.0964C79.9544 20.1186 79.6433 18.9038 79.6433 17.126V9.76303H82.6359V17.126C82.6359 18.0297 82.71 18.726 83.1248 19.2297C83.5248 19.7038 84.1174 20.0149 84.9322 20.0149C85.747 20.0149 86.3396 19.7038 86.7396 19.2297C87.1544 18.7112 87.2285 18.0149 87.2285 17.126V9.76303H90.2359V17.126ZM111.436 20.4593C110.799 21.0223 109.332 22.5927 105.895 22.5927C102.443 22.5927 99.4211 20.326 99.4211 16.1778C99.4211 12.0297 102.458 9.77784 105.94 9.77784C109.243 9.77784 110.666 11.5112 111.066 11.9408L109.14 13.6149C108.621 13.0371 107.643 12.1927 105.94 12.1927C103.94 12.1927 102.384 13.6593 102.384 16.1778C102.384 18.6964 103.969 20.163 105.999 20.163C108.029 20.163 108.591 19.363 108.591 19.363V17.526H105.969V15.3038H111.436V20.4593ZM133.362 22.5778H130.103L129.199 20.0001H124.651L123.747 22.563H120.636L125.436 9.79266H128.547L133.362 22.5778ZM128.517 17.6741L126.932 13.0964L125.347 17.6741H128.517ZM152.651 22.5778H149.184L146.503 17.7038H145.554V22.5778H142.562V9.82229H147.14C148.562 9.82229 149.673 10.1186 150.503 10.726C151.347 11.3482 151.91 12.3704 151.91 13.6445C151.91 16.0593 150.354 17.0075 149.421 17.3038L152.651 22.5778ZM148.251 12.4741C147.88 12.1927 147.406 12.1482 146.725 12.1482H145.54V15.4075H146.725C147.406 15.4075 147.895 15.3334 148.251 15.0519C148.636 14.7704 148.903 14.4297 148.903 13.763C148.903 13.1112 148.636 12.7408 148.251 12.4741Z" fill="#201F1E"/>
</svg>
