<svg width="264" height="32" viewBox="0 0 264 32" fill="none" xmlns="http://www.w3.org/2000/svg">
<path fill-rule="evenodd" clip-rule="evenodd" d="M102.181 25.1616C101.567 26.0384 100.34 26.2575 99.463 25.6438C98.5863 25.0301 98.3671 23.8027 98.9808 22.926C100.34 20.9534 101.436 19.5068 102.4 18.2356C102.97 19.3753 103.627 20.6027 104.329 22.0055C103.715 22.9699 103.014 23.9781 102.181 25.1616ZM103.408 5.26027C104.066 5.26027 104.592 5.7863 104.592 6.44383C104.592 7.36438 104.241 8.32876 103.233 9.77534C102.4 8.02191 102.312 7.58356 102.225 7.0137C102.005 5.83013 102.751 5.26027 103.408 5.26027ZM114.323 15.1233H108.712L107.222 17.4466C106.652 16.3945 106.082 15.2986 105.469 14.2027C107.529 11.4849 108.932 9.20548 108.932 6.48767C108.932 3.41917 106.433 0.920545 103.364 0.920545C100.296 0.920545 97.7973 3.41917 97.7973 6.48767C97.7973 8.3726 98.0603 9.51233 100.121 13.8082C98.3671 15.9562 95.9123 19.0247 94.7726 20.4712C92.4493 23.4082 93.3699 27.7479 96.4384 29.8959C99.5069 32.0438 103.89 31.4301 105.863 28.274C106.038 27.9671 106.345 27.4849 106.74 26.9151C107.353 28.0986 107.967 29.326 108.712 30.7288H114.411C114.411 30.7288 112.438 27.1342 109.808 22.2247C111.737 19.2 113.71 16.0877 114.323 15.1233ZM256.57 1.31507L250.389 11.6164L244.34 1.31507H238.071L247.408 16.3068V30.6849H252.537V16.7452L262.4 1.31507H256.57ZM16.8767 1.31507H0.394531V6.44383H6.04933V30.6849H11.1781V6.44383H16.8767V1.31507ZM219.879 1.31507H203.397V6.44383H209.096V30.6849H214.225V6.44383H219.879V1.31507ZM25.5123 6.44383C24.8986 6.70685 24.3726 7.10137 23.8904 7.62739C22.926 8.63561 22.3123 10.0384 22.3123 11.6603V20.3836C22.3123 21.5671 22.663 22.663 23.2329 23.5836C23.8027 24.5041 24.5918 25.1616 25.5123 25.6C26.126 25.863 26.7836 26.0384 27.4849 26.0384C28.1863 26.0384 28.8438 25.9068 29.4575 25.6C30.0712 25.337 30.5973 24.9425 31.0795 24.4164C32.0438 23.4082 32.6575 22.0055 32.6575 20.3836V11.6603C32.6575 10.4767 32.3069 9.38082 31.737 8.46027C31.1671 7.53972 30.3781 6.88219 29.4575 6.44383C28.8438 6.18082 28.1863 6.00548 27.4849 6.00548C26.7397 6.00548 26.0822 6.18082 25.5123 6.44383ZM27.4411 31.1671C25.9945 31.1671 24.6356 30.8603 23.3644 30.2904C22.137 29.7205 20.9973 28.9315 20.0767 27.9671C18.2356 25.9945 17.0959 23.3205 17.0959 20.4274V11.6603C17.0959 7.27671 19.5945 3.46301 23.3206 1.75342C24.548 1.18356 25.9507 0.876709 27.3973 0.876709C28.8438 0.876709 30.2028 1.18356 31.474 1.75342C32.7014 2.32328 33.8411 3.11233 34.7617 4.07671C36.6027 6.04931 37.7425 8.72328 37.7425 11.6164V20.3397C37.7425 24.7233 35.2438 28.537 31.5178 30.2466C30.2466 30.8164 28.8877 31.1671 27.4411 31.1671ZM146.805 6.44383C146.192 6.70685 145.666 7.10137 145.184 7.62739C144.219 8.63561 143.605 10.0384 143.605 11.6603V20.3836C143.605 21.5671 143.956 22.663 144.526 23.5836C145.096 24.5041 145.885 25.1616 146.805 25.6C147.419 25.863 148.077 26.0384 148.778 26.0384C149.479 26.0384 150.137 25.9068 150.751 25.6C151.364 25.337 151.89 24.9425 152.373 24.4164C153.337 23.4082 153.951 22.0055 153.951 20.3836V11.6603C153.951 10.4767 153.6 9.38082 153.03 8.46027C152.46 7.53972 151.671 6.88219 150.751 6.44383C150.137 6.18082 149.479 6.00548 148.778 6.00548C148.077 6.00548 147.419 6.18082 146.805 6.44383ZM148.778 31.1671C147.332 31.1671 145.973 30.8603 144.701 30.2904C143.474 29.7205 142.334 28.9315 141.414 27.9671C139.573 25.9945 138.433 23.3205 138.433 20.4274V11.6603C138.433 7.27671 140.932 3.46301 144.658 1.75342C145.885 1.18356 147.288 0.876709 148.734 0.876709C150.181 0.876709 151.54 1.18356 152.811 1.75342C154.038 2.32328 155.178 3.11233 156.099 4.07671C157.94 6.04931 159.079 8.72328 159.079 11.6164V20.3397C159.079 24.7233 156.581 28.537 152.855 30.2466C151.584 30.8164 150.225 31.1671 148.778 31.1671ZM131.551 20.9096C131.419 22.3562 130.805 23.6274 129.885 24.5479C129.403 25.0301 128.877 25.3808 128.307 25.6438C127.737 25.9068 127.079 26.0384 126.422 26.0384C125.721 26.0384 125.063 25.9068 124.449 25.6C123.529 25.2055 122.74 24.5041 122.17 23.5836C121.6 22.663 121.249 21.5671 121.249 20.3836V11.6603C121.249 10.0384 121.863 8.63561 122.827 7.62739C123.31 7.10137 123.879 6.70685 124.449 6.44383C125.063 6.18082 125.721 6.00548 126.422 6.00548C127.123 6.00548 127.781 6.13698 128.351 6.44383C129.271 6.83835 130.06 7.53972 130.63 8.46027C131.2 9.38082 131.551 10.4767 131.551 11.6603H136.679C136.679 8.72328 135.584 6.04931 133.699 4.12054C132.778 3.15616 131.682 2.32328 130.411 1.79726C129.184 1.22739 127.781 0.920545 126.334 0.920545C124.888 0.920545 123.529 1.22739 122.258 1.79726C118.532 3.46301 116.033 7.32054 116.033 11.7041V20.4274C116.033 23.3644 117.129 26.0384 119.014 27.9671C119.934 28.9315 121.03 29.7644 122.301 30.2904C123.529 30.8603 124.932 31.1671 126.378 31.1671C127.737 31.1671 129.096 30.8603 130.279 30.3781C133.918 28.8 136.373 25.2493 136.636 21.0849V20.9534H131.551V20.9096ZM170.345 31.1671C167.715 31.1671 165.348 30.1151 163.595 28.3616C161.885 26.6521 160.789 24.2411 160.789 21.611V1.31507H165.918V21.6548C165.918 22.8822 166.4 23.9342 167.189 24.7671C167.978 25.5562 169.074 26.0384 170.301 26.0384C171.529 26.0384 172.581 25.5562 173.414 24.7671C174.203 23.9781 174.685 22.8822 174.685 21.6548V1.31507H179.814V21.6548C179.814 24.2849 178.762 26.6521 177.008 28.4055C175.386 30.0712 172.975 31.1671 170.345 31.1671ZM196.515 1.31507V19.7699L187.178 1.31507H181.655V30.7288H186.784V11.9233L196.252 30.7288H201.644V1.31507H196.515ZM86.3123 1.31507V19.7699L76.9754 1.31507H71.4521V30.7288H76.5808V11.9233L86.0493 30.7288H91.4411V1.31507H86.3123ZM231.364 6.44383C233.381 6.44383 235.003 8.06575 235.003 10.0822C235.003 12.0986 233.381 13.7205 231.364 13.7205H226.805V6.44383H231.364ZM236.318 16.0877C236.625 15.8685 236.888 15.6493 237.151 15.4301C237.984 14.6849 238.641 13.7644 239.123 12.7562C239.605 11.7479 239.868 10.6082 239.868 9.42465C239.868 8.24109 239.605 7.10137 239.123 6.09315C237.721 2.93698 234.477 1.31507 230.838 1.31507H221.633V30.7288H226.762V18.1479H230.795C232.899 18.1479 234.082 19.3315 234.082 21.4356V30.7288H239.211V19.3753C239.255 17.3589 238.115 16.2192 236.318 16.0877ZM64.2192 1.31507L60.1863 18.937L55.6712 1.31507H51.2L47.211 18.937L43.1343 1.31507H37.2164L44.537 30.6849H49.0521L53.1726 12.4055L57.8192 30.6849H62.5096L69.9617 1.31507H64.2192Z" fill="#010101"/>
</svg>
